<svg viewBox="0 0 60 52" fill="none" xmlns="http://www.w3.org/2000/svg">
  <!-- Silhueta do ícone de grão de madeira -->
  <path d="M12 48 C12 48 8 38 10 28 C11 22 14 18 16 14 C18 10 18 6 18 6
           C18 6 20 10 19 16 C18 20 16 24 17 30 C18 36 22 40 22 48 Z"
        fill="#8B5E20"/>
  <path d="M22 48 C22 48 18 40 19 32 C20 26 23 22 24 18 C25 14 24 8 24 8
           C24 8 27 12 27 18 C27 24 25 28 26 34 C27 40 30 44 30 48 Z"
        fill="#AF7C34"/>
  <path d="M30 48 C30 48 27 42 28 35 C29 29 32 25 33 20 C34 15 32 9 32 9
           C32 9 36 13 36 20 C36 26 33 30 34 36 C35 42 37 45 37 48 Z"
        fill="#C8922A"/>
  <path d="M37 48 C37 48 35 43 36 37 C37 31 40 27 40 22 C40 17 38 12 38 12
           C38 12 42 16 43 22 C44 28 41 32 42 38 C43 43 44 46 44 48 Z"
        fill="#AF7C34"/>
  <path d="M44 48 C44 48 43 44 44 39 C45 34 48 30 48 25 C48 20 46 16 46 16
           C46 16 50 20 50 26 C50 32 47 36 48 41 C48 44 49 47 49 48 Z"
        fill="#8B5E20"/>
  <!-- Ramificação superior esquerda -->
  <path d="M16 14 C16 14 10 12 8 8 C7 6 8 4 8 4 C8 4 12 6 14 10 C15 12 16 14 16 14 Z"
        fill="#8B5E20"/>
  <!-- Ramificação superior direita -->
  <path d="M38 12 C38 12 44 10 46 6 C47 4 46 2 46 2 C46 2 42 4 40 8 C39 10 38 12 38 12 Z"
        fill="#8B5E20"/>
</svg>
